<svg version="1.1" id="Layer_1" xmlns="http://www.w3.org/2000/svg" xmlns:xlink="http://www.w3.org/1999/xlink" x="0px" y="0px"
	 width="100%" viewBox="0 0 130 132" enable-background="new 0 0 130 132" xml:space="preserve">
<path fill="#FAFCFC" opacity="1.000000" stroke="none" 
	d="
M78.000000,133.000000 
	C52.000004,133.000000 26.500006,133.000000 1.000007,133.000000 
	C1.000005,89.000008 1.000005,45.000015 1.000002,1.000019 
	C44.333317,1.000012 87.666634,1.000012 130.999969,1.000006 
	C130.999969,44.999981 130.999969,88.999962 130.999985,132.999969 
	C113.500000,133.000000 96.000000,133.000000 78.000000,133.000000 
M17.014196,75.899529 
	C17.389923,77.920105 17.765650,79.940681 17.732264,82.437675 
	C17.832434,84.628693 17.932604,86.819702 17.305450,89.299858 
	C13.709639,89.307365 10.356572,90.326546 9.434233,94.056099 
	C8.903133,96.203644 9.501922,98.946159 10.433083,101.048363 
	C11.311420,103.031326 13.291471,104.526299 15.188822,106.790298 
	C16.012383,106.854050 16.835945,106.917809 19.065556,107.090401 
	C17.179930,106.040855 16.538364,105.683754 15.501454,104.694572 
	C15.142711,103.478745 15.166996,101.760025 14.353905,101.140717 
	C11.844631,99.229492 10.332025,97.168907 12.029221,94.114662 
	C13.870974,90.800278 16.868292,91.473541 19.891151,92.151596 
	C19.891151,92.151596 19.751461,92.206337 19.973570,92.800774 
	C20.136152,93.554550 20.298735,94.308319 20.468149,95.093765 
	C21.674379,94.090958 22.908104,93.065285 24.926052,92.162346 
	C26.031551,91.981026 27.655104,92.204559 28.162231,91.555626 
	C33.105793,85.229759 37.862747,78.758049 43.240147,71.569496 
	C34.588367,69.530403 29.623816,75.471504 23.059278,77.181198 
	C24.876846,71.667320 25.952135,66.716003 28.079735,62.268028 
	C34.426952,48.998478 37.501434,43.204006 52.539928,43.104355 
	C55.317638,43.085949 56.986309,42.192642 58.671421,39.967339 
	C63.715813,33.305897 68.338531,26.180225 75.935532,22.499748 
	C75.956413,23.199039 75.977295,23.898329 75.354042,24.884008 
	C70.205177,30.596033 65.056313,36.308056 59.404160,42.461365 
	C58.919167,44.183014 58.434177,45.904663 57.433033,47.896866 
	C57.247810,47.950611 57.062584,48.004353 56.462200,48.002510 
	C56.462200,48.002510 56.043819,47.982452 55.691177,47.344872 
	C54.353252,46.752602 53.050503,46.034355 51.655922,45.645020 
	C51.238876,45.528591 50.565132,46.331646 49.223446,46.783157 
	C44.592396,46.015732 40.400265,46.669762 37.562878,50.856552 
	C35.810753,53.441952 34.315086,56.201149 32.122810,59.300220 
	C30.926037,62.103298 29.655600,64.878593 28.580788,67.727676 
	C28.287357,68.505501 28.262699,69.753204 28.707039,70.324806 
	C29.065611,70.786072 30.342594,70.728676 31.165882,70.601631 
	C36.422249,69.790527 41.665817,68.896446 47.344658,68.739365 
	C45.888744,71.041794 44.432835,73.344215 42.639503,76.180260 
	C43.830879,77.150291 45.414440,78.439644 47.536938,80.041733 
	C48.230839,80.746971 48.924740,81.452209 49.683781,82.909477 
	C49.419685,84.213120 49.155590,85.516754 49.138031,85.603416 
	C51.963573,86.902794 53.989811,87.834595 55.761593,89.582886 
	C54.669491,90.043404 53.506916,90.385368 52.497707,90.985336 
	C48.500736,93.361504 44.551773,95.818428 40.585011,98.245415 
	C40.247192,97.886269 39.909374,97.527115 39.571560,97.167969 
	C41.809555,92.352180 44.047550,87.536392 46.387600,82.500999 
	C45.558498,82.117409 44.408142,81.585197 42.919453,80.767761 
	C41.582153,81.115280 39.896233,81.063339 38.964958,81.876099 
	C33.515846,86.631714 30.251554,92.710358 28.246754,100.161194 
	C29.851261,99.343956 30.818645,98.851227 32.473934,98.008118 
	C30.838846,102.687729 29.510189,106.490334 27.856554,111.223022 
	C32.673790,108.833359 36.494171,106.938194 40.409782,104.995796 
	C40.895218,106.094124 41.324966,107.066467 42.200394,109.047173 
	C46.938740,104.923302 51.380634,101.349304 55.395111,97.346626 
	C56.331711,96.412773 55.816936,94.023277 55.724129,91.102310 
	C55.835133,90.337387 55.946136,89.572472 56.762661,88.828552 
	C58.364563,90.228729 59.966469,91.628914 61.714642,93.156937 
	C63.523514,91.085480 65.244339,89.114861 67.304405,86.755745 
	C70.374100,91.993752 69.782959,96.628784 68.631248,101.319778 
	C68.224403,102.976913 67.897888,104.653770 67.534683,106.321617 
	C69.059532,105.907341 70.580177,105.476654 72.110817,105.085007 
	C73.018555,104.852737 73.942032,104.682030 75.425835,104.226120 
	C75.768410,104.005104 76.110977,103.784081 76.520073,103.483711 
	C76.520073,103.483711 76.623619,103.483673 77.236176,103.232506 
	C88.043236,98.155411 92.429596,89.792427 90.171364,78.008476 
	C90.049057,77.370239 90.126625,76.693710 90.739090,75.613571 
	C104.310577,65.642540 114.996544,53.446949 120.802635,36.924164 
	C121.019569,36.635773 121.052673,36.327637 121.122307,35.343666 
	C121.100716,34.891163 121.079124,34.438663 121.436844,33.327343 
	C121.977203,26.329126 122.665207,19.335905 122.902351,12.327433 
	C122.938881,11.248120 120.987915,9.237567 119.810928,9.120767 
	C111.905357,8.336248 104.177620,9.248831 96.156036,12.872159 
	C90.542480,15.916507 84.928925,18.960855 78.438057,21.998911 
	C77.561104,21.940905 76.684151,21.882900 75.356674,21.225138 
	C62.266144,18.403656 50.402611,21.869493 39.524647,28.881016 
	C25.387732,37.993137 16.827494,50.716892 15.720005,68.321526 
	C15.678741,68.463264 15.586587,68.612762 15.606784,68.745125 
	C15.649153,69.022789 15.750611,69.291435 15.468019,70.347885 
	C15.329931,70.905922 15.191843,71.463959 14.196665,71.914322 
	C9.375508,71.237450 5.801861,72.577209 4.080696,78.471672 
	C8.518429,76.098335 11.960250,72.346954 16.899193,75.111839 
	C16.899193,75.111839 16.768093,75.171051 17.014196,75.899529 
M61.872826,122.003403 
	C65.497948,122.003403 69.123077,122.003403 72.766190,122.003403 
	C72.916389,120.376389 73.022934,119.222198 73.760216,117.791054 
	C76.504921,112.789749 80.580124,111.862396 85.771797,114.275024 
	C85.771797,112.302879 85.771797,110.688889 86.071152,108.425003 
	C87.378754,106.612328 88.686356,104.799644 90.518806,103.245293 
	C95.063904,101.817863 101.110321,102.968063 100.495796,104.937447 
	C99.188782,109.126053 105.814919,110.251480 103.692108,113.986259 
	C102.250946,116.521767 99.950035,118.669708 97.691284,120.587868 
	C96.830482,121.318878 95.014015,120.924522 92.819572,121.112869 
	C101.380318,123.459915 107.295532,118.354942 106.874809,110.285378 
	C106.768761,108.251282 107.921837,106.151543 109.043060,103.733528 
	C122.376663,87.507675 124.222633,64.663460 117.179771,52.836990 
	C109.983765,60.128880 102.499786,67.580780 95.216309,75.223770 
	C94.012733,76.486755 92.949005,78.643074 93.076088,80.289658 
	C93.850540,90.324394 90.794350,98.242668 81.640076,103.274605 
	C79.645760,104.370857 77.904083,105.960045 75.857849,106.921783 
	C71.138466,109.139931 66.303574,111.112289 60.856991,113.469345 
	C62.576385,106.109360 68.397690,101.217964 66.414917,93.194893 
	C63.401821,94.751007 60.424404,95.723686 58.184010,97.583977 
	C55.153568,100.100250 52.688957,103.297958 49.335094,106.454933 
	C43.825184,109.761589 51.551857,112.873024 49.456959,115.160728 
	C51.284733,114.952354 53.098064,114.745628 55.181183,114.974892 
	C55.560715,115.316086 55.940243,115.657288 56.632126,116.677940 
	C57.450829,119.492432 57.396141,122.715134 54.293663,123.328514 
	C50.623581,124.054123 46.635921,123.549019 42.842358,123.100296 
	C41.191666,122.905029 39.681625,121.520699 38.107704,120.676407 
	C37.902256,121.082474 37.696808,121.488541 37.491360,121.894608 
	C38.584755,122.462677 39.797394,122.878082 40.752102,123.623726 
	C46.722218,128.286514 53.762398,127.963127 58.825855,122.786858 
	C59.334000,122.267403 60.238377,122.135551 61.872826,122.003403 
z"/>
<path fill="#24ABDB" opacity="1.000000" stroke="none" 
	d="
M89.993958,102.986969 
	C88.686356,104.799644 87.378754,106.612328 85.660416,109.002663 
	C83.454185,110.055313 81.683876,110.760193 79.858253,110.960228 
	C75.228195,111.467575 72.521057,114.205925 73.129486,118.068008 
	C73.022934,119.222198 72.916389,120.376389 72.766190,122.003403 
	C69.123077,122.003403 65.497948,122.003403 61.265732,121.605881 
	C59.212349,119.471741 57.766060,117.735115 56.319771,115.998489 
	C55.940243,115.657288 55.560715,115.316086 55.032585,114.360413 
	C52.990765,111.400131 48.794136,110.551437 49.981590,106.203316 
	C52.688957,103.297958 55.153568,100.100250 58.184010,97.583977 
	C60.424404,95.723686 63.401821,94.751007 66.414917,93.194893 
	C68.397690,101.217964 62.576385,106.109360 60.856991,113.469345 
	C66.303574,111.112289 71.138466,109.139931 75.857849,106.921783 
	C77.904083,105.960045 79.645760,104.370857 81.640076,103.274605 
	C90.794350,98.242668 93.850540,90.324394 93.076088,80.289658 
	C92.949005,78.643074 94.012733,76.486755 95.216309,75.223770 
	C102.499786,67.580780 109.983765,60.128880 117.179771,52.836990 
	C124.222633,64.663460 122.376663,87.507675 108.409264,103.976562 
	C106.230186,103.726357 104.472000,103.551376 103.176506,102.684731 
	C97.584702,98.944023 92.946648,98.958397 89.993958,102.986969 
z"/>
<path fill="#23AADB" opacity="1.000000" stroke="none" 
	d="
M15.991726,67.963295 
	C16.827494,50.716892 25.387732,37.993137 39.524647,28.881016 
	C50.402611,21.869493 62.266144,18.403656 75.676842,21.601891 
	C75.997009,21.978645 75.825653,21.803793 75.825653,21.803793 
	C68.338531,26.180225 63.715813,33.305897 58.671421,39.967339 
	C56.986309,42.192642 55.317638,43.085949 52.539928,43.104355 
	C37.501434,43.204006 34.426952,48.998478 28.079735,62.268028 
	C25.952135,66.716003 24.876846,71.667320 23.059278,77.181198 
	C29.623816,75.471504 34.588367,69.530403 43.240147,71.569496 
	C37.862747,78.758049 33.105793,85.229759 28.162231,91.555626 
	C27.655104,92.204559 26.031551,91.981026 24.094492,92.094238 
	C22.092442,92.086205 20.921951,92.146271 19.751461,92.206337 
	C19.751461,92.206337 19.891151,92.151596 19.882132,91.848083 
	C19.492674,90.978333 19.112236,90.412109 18.731464,89.566513 
	C18.470293,89.187462 18.209457,89.087776 17.974270,88.976913 
	C17.999920,88.965752 18.032774,89.010719 18.032774,89.010719 
	C17.932604,86.819702 17.832434,84.628693 18.230267,82.021729 
	C20.841061,78.618225 20.139853,76.487877 16.768093,75.171051 
	C16.768093,75.171051 16.899193,75.111839 16.902672,74.834648 
	C16.288685,73.712303 15.671220,72.867149 15.053755,72.021996 
	C15.191843,71.463959 15.329931,70.905922 15.675991,69.760284 
	C15.919884,68.769547 15.955805,68.366425 15.991726,67.963295 
z"/>
<path fill="#F7F7F8" opacity="1.000000" stroke="none" 
	d="
M75.902100,21.901770 
	C76.684151,21.882900 77.561104,21.940905 79.069397,22.311104 
	C81.136589,22.380518 82.689865,22.408001 83.986481,21.844713 
	C88.007462,20.097898 91.930885,18.126528 96.052765,16.545719 
	C101.806221,22.568598 107.399086,28.288065 113.006874,34.375500 
	C110.920227,38.462944 109.021080,42.322121 106.604225,45.824001 
	C105.789055,47.005127 103.660706,47.279949 102.173950,47.626431 
	C102.511665,45.844826 102.807953,44.405766 103.055679,42.564056 
	C105.388542,37.278027 103.437363,33.760212 99.371475,31.025734 
	C98.021873,30.118074 96.455414,29.532843 94.792442,28.454556 
	C86.098015,27.631910 81.177246,30.771563 78.790283,38.246880 
	C77.159500,48.043297 82.275063,55.273746 90.906021,55.497547 
	C93.935158,55.576088 96.993858,54.514500 99.844467,54.245247 
	C90.406853,64.313454 79.649529,71.814705 66.547241,76.070831 
	C66.087883,75.645370 65.902069,75.325409 65.955025,74.756622 
	C71.898804,69.687881 75.819801,63.750053 77.883926,56.411934 
	C77.089188,56.208916 76.580147,55.906036 76.183907,56.014656 
	C75.425003,56.222698 74.730202,56.664600 73.649200,56.957634 
	C68.288071,60.995792 63.286545,65.085770 58.085060,69.339264 
	C57.723694,68.945274 56.850304,67.993050 55.979931,66.645912 
	C57.953838,61.717400 59.576286,56.988049 61.984982,52.700390 
	C64.909615,47.494328 68.497559,42.660896 71.798523,37.666252 
	C71.413658,37.381504 71.028793,37.096760 70.643929,36.812016 
	C67.162086,41.282612 63.680248,45.753204 59.894737,50.055923 
	C59.043770,49.134136 58.496479,48.380226 57.949188,47.626316 
	C58.434177,45.904663 58.919167,44.183014 59.982311,42.374130 
	C61.288200,42.200279 62.304142,42.392761 62.699623,41.984379 
	C67.233528,37.302624 71.728928,32.579239 76.062737,27.713871 
	C76.569138,27.145361 76.044716,25.658657 75.998169,24.597620 
	C75.977295,23.898329 75.956413,23.199039 75.880592,22.151772 
	C75.825653,21.803793 75.997009,21.978645 75.902100,21.901770 
M80.365417,28.893648 
	C80.231346,28.918482 80.097275,28.943316 79.477875,29.098064 
	C79.284386,29.360714 79.090897,29.623363 78.357742,29.896482 
	C78.138878,30.171921 77.920021,30.447357 77.701164,30.722797 
	C78.155128,30.499662 78.609100,30.276527 79.502831,29.837641 
	C79.781555,29.634768 79.954483,29.364246 80.365417,28.893648 
M74.524963,33.743149 
	C74.524963,33.743149 74.660286,33.471546 74.660286,33.471546 
	C74.660286,33.471546 74.363823,33.525890 74.524963,33.743149 
z"/>
<path fill="#151436" opacity="1.000000" stroke="none" 
	d="
M56.016048,88.766396 
	C53.989811,87.834595 51.963573,86.902794 49.138031,85.603416 
	C49.155590,85.516754 49.419685,84.213120 50.004738,82.476959 
	C53.885254,80.363976 57.444805,78.683517 61.132687,77.515213 
	C61.363579,78.364128 61.466145,78.700890 61.472183,79.307709 
	C64.143608,81.112175 65.325691,86.715561 70.447662,82.713318 
	C70.989159,81.932144 71.224960,81.432053 71.640457,81.034973 
	C71.820152,81.138000 71.821312,81.552277 71.952927,81.827255 
	C72.713699,82.102852 73.342842,82.103477 74.295540,81.960907 
	C78.304619,79.832977 81.990150,77.848236 86.103172,75.903694 
	C87.673096,76.011322 88.815529,76.078751 89.983154,76.388458 
	C89.845413,77.078331 89.682480,77.525932 89.145203,78.014717 
	C87.783760,78.688232 86.796669,79.320564 85.471153,80.012604 
	C83.950806,80.934624 82.845665,81.938156 81.571541,82.630882 
	C78.590248,84.251778 75.200905,85.209892 75.906258,89.957008 
	C76.412979,93.367287 76.023033,96.910805 76.035477,100.793655 
	C76.233124,101.956177 76.428368,102.719925 76.623619,103.483673 
	C76.623619,103.483673 76.520073,103.483711 76.143951,103.487000 
	C75.464691,103.821411 75.161560,104.152519 74.858429,104.483643 
	C73.942032,104.682030 73.018555,104.852737 72.110817,105.085007 
	C70.580177,105.476654 69.059532,105.907341 67.534683,106.321617 
	C67.897888,104.653770 68.224403,102.976913 68.631248,101.319778 
	C69.782959,96.628784 70.374100,91.993752 67.304405,86.755745 
	C65.244339,89.114861 63.523514,91.085480 61.714642,93.156937 
	C59.966469,91.628914 58.364563,90.228729 56.369797,88.847778 
	C55.976929,88.867012 56.016048,88.766396 56.016048,88.766396 
M60.649437,87.924500 
	C61.233246,87.579109 61.817055,87.233727 62.400867,86.888344 
	C61.899208,86.620735 61.397552,86.353119 60.895889,86.085510 
	C60.598030,86.647881 60.300167,87.210251 60.649437,87.924500 
z"/>
<path fill="#E12324" opacity="1.000000" stroke="none" 
	d="
M55.969948,92.303528 
	C55.816936,94.023277 56.331711,96.412773 55.395111,97.346626 
	C51.380634,101.349304 46.938740,104.923302 42.200394,109.047173 
	C41.324966,107.066467 40.895218,106.094124 40.409782,104.995796 
	C36.494171,106.938194 32.673790,108.833359 27.856554,111.223022 
	C29.510189,106.490334 30.838846,102.687729 32.473934,98.008118 
	C30.818645,98.851227 29.851261,99.343956 28.246754,100.161194 
	C30.251554,92.710358 33.515846,86.631714 38.964958,81.876099 
	C39.896233,81.063339 41.582153,81.115280 43.014877,81.256058 
	C40.826618,84.507080 38.542938,87.269806 35.997669,90.348991 
	C37.221481,90.864471 38.008404,91.195930 38.839428,91.545959 
	C37.218266,95.495903 35.623291,99.382042 34.028313,103.268188 
	C41.529087,99.420189 51.365337,100.872421 55.969948,92.303528 
z"/>
<path fill="#0D1033" opacity="1.000000" stroke="none" 
	d="
M112.991951,34.007530 
	C107.399086,28.288065 101.806221,22.568598 96.196060,16.209774 
	C96.427277,14.647353 96.675781,13.724294 96.924286,12.801235 
	C104.177620,9.248831 111.905357,8.336248 119.810928,9.120767 
	C120.987915,9.237567 122.938881,11.248120 122.902351,12.327433 
	C122.665207,19.335905 121.977203,26.329126 121.016327,33.792145 
	C120.697853,34.837879 120.799904,35.418816 120.901947,35.999752 
	C121.052673,36.327637 121.019569,36.635773 120.255249,36.911629 
	C119.036324,36.643127 118.364799,36.387161 117.371185,36.076462 
	C115.696716,35.350330 114.344330,34.678932 112.991951,34.007530 
M115.946030,12.043271 
	C110.034874,12.542096 104.123726,13.040920 98.212570,13.539745 
	C98.094032,14.084387 97.975494,14.629027 97.856956,15.173669 
	C99.356804,16.727402 100.856651,18.281134 102.383675,20.519720 
	C106.245880,24.026022 110.108093,27.532326 114.360649,31.570139 
	C115.667061,32.225620 116.973473,32.881096 119.567490,34.182621 
	C119.946869,27.852135 120.276588,22.350248 120.633263,16.113932 
	C120.362267,13.841469 120.412003,11.260839 115.946030,12.043271 
z"/>
<path fill="#151536" opacity="1.000000" stroke="none" 
	d="
M56.043819,47.982452 
	C56.043819,47.982452 56.462200,48.002510 56.732292,48.429516 
	C57.013683,49.908562 57.024982,50.960598 56.691887,52.107964 
	C55.683033,53.815914 55.018581,55.428547 54.234211,57.391560 
	C53.442608,60.081078 52.770924,62.420212 52.036278,65.161636 
	C51.928410,65.831650 51.883499,66.099365 51.611794,66.434341 
	C51.091564,67.052994 50.798130,67.604385 50.057140,68.114075 
	C48.710922,68.058136 47.812260,68.043907 46.913597,68.029671 
	C41.665817,68.896446 36.422249,69.790527 31.165882,70.601631 
	C30.342594,70.728676 29.065611,70.786072 28.707039,70.324806 
	C28.262699,69.753204 28.287357,68.505501 28.580788,67.727676 
	C29.655600,64.878593 30.926037,62.103298 32.690582,59.232059 
	C33.514935,59.707882 33.771515,60.251869 34.058662,61.162094 
	C37.099689,61.350677 40.156731,60.756882 43.110283,61.087536 
	C48.245853,61.662464 51.295113,59.975716 52.264149,54.732395 
	C52.556713,53.149353 53.422905,51.672321 54.313416,50.025192 
	C55.081600,49.263248 55.562710,48.622849 56.043819,47.982452 
z"/>
<path fill="#F9C21E" opacity="1.000000" stroke="none" 
	d="
M55.847038,91.702919 
	C51.365337,100.872421 41.529087,99.420189 34.028313,103.268188 
	C35.623291,99.382042 37.218266,95.495903 38.839428,91.545959 
	C38.008404,91.195930 37.221481,90.864471 35.997669,90.348991 
	C38.542938,87.269806 40.826618,84.507080 43.184044,81.398666 
	C44.408142,81.585197 45.558498,82.117409 46.387600,82.500999 
	C44.047550,87.536392 41.809555,92.352180 39.571560,97.167969 
	C39.909374,97.527115 40.247192,97.886269 40.585011,98.245415 
	C44.551773,95.818428 48.500736,93.361504 52.497707,90.985336 
	C53.506916,90.385368 54.669491,90.043404 55.888821,89.174637 
	C56.016048,88.766396 55.976929,88.867012 56.017036,88.837280 
	C55.946136,89.572472 55.835133,90.337387 55.847038,91.702919 
z"/>
<path fill="#12122A" opacity="1.000000" stroke="none" 
	d="
M117.693268,36.131195 
	C118.364799,36.387161 119.036324,36.643127 120.044495,37.031708 
	C114.996544,53.446949 104.310577,65.642540 90.386078,75.851044 
	C90.033058,76.088516 89.957962,76.146179 89.957962,76.146179 
	C88.815529,76.078751 87.673096,76.011322 86.294907,75.615356 
	C100.565659,65.435715 112.219818,53.280178 117.693268,36.131195 
z"/>
<path fill="#1B9FCF" opacity="1.000000" stroke="none" 
	d="
M90.256386,103.116135 
	C92.946648,98.958397 97.584702,98.944023 103.176506,102.684731 
	C104.472000,103.551376 106.230186,103.726357 108.135880,104.150787 
	C107.921837,106.151543 106.768761,108.251282 106.874809,110.285378 
	C107.295532,118.354942 101.380318,123.459915 92.819572,121.112869 
	C95.014015,120.924522 96.830482,121.318878 97.691284,120.587868 
	C99.950035,118.669708 102.250946,116.521767 103.692108,113.986259 
	C105.814919,110.251480 99.188782,109.126053 100.495796,104.937447 
	C101.110321,102.968063 95.063904,101.817863 90.256386,103.116135 
z"/>
<path fill="#14142D" opacity="1.000000" stroke="none" 
	d="
M89.983154,76.388458 
	C89.957962,76.146179 90.033058,76.088516 90.072105,76.061760 
	C90.126625,76.693710 90.049057,77.370239 90.171364,78.008476 
	C92.429596,89.792427 88.043236,98.155411 76.929901,103.358093 
	C76.428368,102.719925 76.233124,101.956177 76.316452,100.677277 
	C77.057037,99.809753 77.519051,99.457382 78.284454,99.046043 
	C78.738548,98.650253 78.889244,98.313431 79.009644,97.976448 
	C78.979362,97.976280 78.971771,98.036392 79.289375,98.112877 
	C80.086655,97.794571 80.566330,97.399788 81.020126,96.998840 
	C80.994247,96.992683 80.994202,97.045883 81.268158,96.985687 
	C81.709145,96.621819 81.876183,96.318138 82.020355,96.007584 
	C81.997490,96.000702 82.020493,96.042564 82.379807,96.046844 
	C84.399971,93.579185 86.613556,91.303894 87.580734,88.585197 
	C88.770348,85.241264 88.920258,81.527466 89.519547,77.973526 
	C89.682480,77.525932 89.845413,77.078331 89.983154,76.388458 
z"/>
<path fill="#1EA6D3" opacity="1.000000" stroke="none" 
	d="
M56.475945,116.338211 
	C57.766060,117.735115 59.212349,119.471741 60.808754,121.516090 
	C60.238377,122.135551 59.334000,122.267403 58.825855,122.786858 
	C53.762398,127.963127 46.722218,128.286514 40.752102,123.623726 
	C39.797394,122.878082 38.584755,122.462677 37.491360,121.894608 
	C37.696808,121.488541 37.902256,121.082474 38.107704,120.676407 
	C39.681625,121.520699 41.191666,122.905029 42.842358,123.100296 
	C46.635921,123.549019 50.623581,124.054123 54.293663,123.328514 
	C57.396141,122.715134 57.450829,119.492432 56.475945,116.338211 
z"/>
<path fill="#16153B" opacity="1.000000" stroke="none" 
	d="
M61.004360,77.003052 
	C57.444805,78.683517 53.885254,80.363976 49.972168,82.100945 
	C48.924740,81.452209 48.230839,80.746971 47.321281,79.535477 
	C49.475075,77.327560 51.844517,75.625885 54.520077,74.024582 
	C55.224373,74.215195 55.622555,74.305428 56.281967,74.577393 
	C57.385738,74.828781 58.228275,74.898445 59.339306,74.888123 
	C59.976837,74.755081 60.345875,74.702034 60.807777,74.759705 
	C60.900639,74.870430 61.088951,75.089684 61.061745,75.407471 
	C61.024483,76.151192 61.014423,76.577126 61.004360,77.003052 
z"/>
<path fill="#0C0B25" opacity="1.000000" stroke="none" 
	d="
M34.028091,60.795853 
	C33.771515,60.251869 33.514935,59.707882 32.981316,59.023109 
	C34.315086,56.201149 35.810753,53.441952 37.562878,50.856552 
	C40.400265,46.669762 44.592396,46.015732 49.869255,46.989689 
	C48.954456,47.772984 47.424194,48.459911 45.825977,48.900146 
	C43.548492,49.527493 40.448551,49.029598 40.936813,52.967812 
	C40.954250,52.988533 40.973026,52.940235 40.704552,52.676208 
	C39.748154,53.057438 39.060234,53.702690 38.372314,54.347939 
	C38.902992,54.585976 39.433674,54.824009 39.919624,55.394966 
	C37.925964,57.417206 35.977028,59.106529 34.028091,60.795853 
z"/>
<path fill="#111123" opacity="1.000000" stroke="none" 
	d="
M75.676102,24.740814 
	C76.044716,25.658657 76.569138,27.145361 76.062737,27.713871 
	C71.728928,32.579239 67.233528,37.302624 62.699623,41.984379 
	C62.304142,42.392761 61.288200,42.200279 60.233955,42.153488 
	C65.056313,36.308056 70.205177,30.596033 75.676102,24.740814 
z"/>
<path fill="#12122F" opacity="1.000000" stroke="none" 
	d="
M54.213959,73.924217 
	C51.844517,75.625885 49.475075,77.327560 47.051815,79.379120 
	C45.414440,78.439644 43.830879,77.150291 42.639503,76.180260 
	C44.432835,73.344215 45.888744,71.041794 47.129128,68.384521 
	C47.812260,68.043907 48.710922,68.058136 49.968884,68.432800 
	C51.623440,70.503555 52.918701,72.213882 54.213959,73.924217 
z"/>
<path fill="#17A1D1" opacity="1.000000" stroke="none" 
	d="
M18.731796,89.845879 
	C19.112236,90.412109 19.492674,90.978333 19.835411,91.906769 
	C16.868292,91.473541 13.870974,90.800278 12.029221,94.114662 
	C10.332025,97.168907 11.844631,99.229492 14.353905,101.140717 
	C15.166996,101.760025 15.142711,103.478745 15.406832,105.219849 
	C15.137100,105.908730 14.961990,106.072334 14.786882,106.235939 
	C13.291471,104.526299 11.311420,103.031326 10.433083,101.048363 
	C9.501922,98.946159 8.903133,96.203644 9.434233,94.056099 
	C10.356572,90.326546 13.709639,89.307365 17.669113,89.155289 
	C18.032774,89.010719 17.999920,88.965752 17.963634,89.203659 
	C18.160492,89.645988 18.428640,89.780762 18.731796,89.845879 
z"/>
<path fill="#0E0E21" opacity="1.000000" stroke="none" 
	d="
M96.540161,12.836697 
	C96.675781,13.724294 96.427277,14.647353 96.035477,15.906361 
	C91.930885,18.126528 88.007462,20.097898 83.986481,21.844713 
	C82.689865,22.408001 81.136589,22.380518 79.508049,22.314249 
	C84.928925,18.960855 90.542480,15.916507 96.540161,12.836697 
z"/>
<path fill="#5D8AB6" opacity="1.000000" stroke="none" 
	d="
M40.919376,52.947094 
	C40.448551,49.029598 43.548492,49.527493 45.825977,48.900146 
	C47.424194,48.459911 48.954456,47.772984 50.262032,46.954830 
	C50.565132,46.331646 51.238876,45.528591 51.655922,45.645020 
	C53.050503,46.034355 54.353252,46.752602 55.867500,47.663662 
	C55.562710,48.622849 55.081600,49.263248 53.888573,49.967571 
	C49.090897,51.003361 45.005135,51.975227 40.919376,52.947094 
z"/>
<path fill="#179DCE" opacity="1.000000" stroke="none" 
	d="
M73.444847,117.929535 
	C72.521057,114.205925 75.228195,111.467575 79.858253,110.960228 
	C81.683876,110.760193 83.454185,110.055313 85.510742,109.327606 
	C85.771797,110.688889 85.771797,112.302879 85.771797,114.275024 
	C80.580124,111.862396 76.504921,112.789749 73.444847,117.929535 
z"/>
<path fill="#14A1D1" opacity="1.000000" stroke="none" 
	d="
M14.625210,71.968155 
	C15.671220,72.867149 16.288685,73.712303 16.861038,74.893295 
	C11.960250,72.346954 8.518429,76.098335 4.080696,78.471672 
	C5.801861,72.577209 9.375508,71.237450 14.625210,71.968155 
z"/>
<path fill="#129ECF" opacity="1.000000" stroke="none" 
	d="
M49.658344,106.329124 
	C48.794136,110.551437 52.990765,111.400131 54.897690,114.142426 
	C53.098064,114.745628 51.284733,114.952354 49.456959,115.160728 
	C51.551857,112.873024 43.825184,109.761589 49.658344,106.329124 
z"/>
<path fill="#14A1D1" opacity="1.000000" stroke="none" 
	d="
M16.891144,75.535294 
	C20.139853,76.487877 20.841061,78.618225 18.434822,81.783524 
	C17.765650,79.940681 17.389923,77.920105 16.891144,75.535294 
z"/>
<path fill="#E2E2E4" opacity="1.000000" stroke="none" 
	d="
M57.036285,52.012638 
	C57.024982,50.960598 57.013683,49.908562 56.939873,48.457306 
	C57.062584,48.004353 57.247810,47.950611 57.691109,47.761589 
	C58.496479,48.380226 59.043770,49.134136 59.833363,50.310654 
	C59.799263,51.168533 59.522865,51.603809 58.875938,52.021713 
	C58.015701,52.007103 57.525993,52.009869 57.036285,52.012638 
z"/>
<path fill="#17A1D1" opacity="1.000000" stroke="none" 
	d="
M19.862514,92.503555 
	C20.921951,92.146271 22.092442,92.086205 23.702381,92.032875 
	C22.908104,93.065285 21.674379,94.090958 20.468149,95.093765 
	C20.298735,94.308319 20.136152,93.554550 19.862514,92.503555 
z"/>
<path fill="#17A1D1" opacity="1.000000" stroke="none" 
	d="
M15.604504,105.535889 
	C16.538364,105.683754 17.179930,106.040855 19.065556,107.090401 
	C16.835945,106.917809 16.012383,106.854050 14.987852,106.513123 
	C14.961990,106.072334 15.137100,105.908730 15.604504,105.535889 
z"/>
<path fill="#12122A" opacity="1.000000" stroke="none" 
	d="
M121.012131,35.671707 
	C120.799904,35.418816 120.697853,34.837879 120.826675,34.121552 
	C121.079124,34.438663 121.100716,34.891163 121.012131,35.671707 
z"/>
<path fill="#14A1D1" opacity="1.000000" stroke="none" 
	d="
M15.855865,68.142410 
	C15.955805,68.366425 15.919884,68.769547 15.855886,69.368233 
	C15.750611,69.291435 15.649153,69.022789 15.606784,68.745125 
	C15.586587,68.612762 15.678741,68.463264 15.855865,68.142410 
z"/>
<path fill="#14142D" opacity="1.000000" stroke="none" 
	d="
M75.142136,104.354874 
	C75.161560,104.152519 75.464691,103.821411 76.110687,103.526680 
	C76.110977,103.784081 75.768410,104.005104 75.142136,104.354874 
z"/>
<path fill="#FAFCFC" opacity="1.000000" stroke="none" 
	d="
M18.731464,89.566513 
	C18.428640,89.780762 18.160492,89.645988 17.937984,89.214821 
	C18.209457,89.087776 18.470293,89.187462 18.731464,89.566513 
z"/>
<path fill="#A7A8A8" opacity="1.000000" stroke="none" 
	d="
M117.371185,36.076462 
	C112.219818,53.280178 100.565659,65.435715 85.867416,75.575165 
	C81.990150,77.848236 78.304619,79.832977 73.937378,81.865707 
	C72.777550,81.793228 72.299431,81.672752 71.821312,81.552277 
	C71.821312,81.552277 71.820152,81.138000 71.502274,80.788910 
	C69.729858,79.018654 68.275322,77.597488 66.820793,76.176331 
	C79.649529,71.814705 90.406853,64.313454 100.124619,54.091766 
	C101.053978,52.079700 101.508591,50.492844 101.982613,48.667656 
	C102.002014,48.429329 102.132515,47.968971 102.132515,47.968971 
	C103.660706,47.279949 105.789055,47.005127 106.604225,45.824001 
	C109.021080,42.322121 110.920227,38.462944 113.006874,34.375504 
	C114.344330,34.678932 115.696716,35.350330 117.371185,36.076462 
z"/>
<path fill="#9C9DA2" opacity="1.000000" stroke="none" 
	d="
M101.963211,48.905983 
	C101.508591,50.492844 101.053978,52.079700 100.319206,53.820042 
	C96.993858,54.514500 93.935158,55.576088 90.906021,55.497547 
	C82.275063,55.273746 77.159500,48.043297 79.093735,38.331219 
	C79.864197,38.764576 80.021515,39.363964 80.113945,40.358627 
	C79.969368,46.280342 82.706261,49.640812 88.204361,51.385780 
	C91.039246,51.499763 93.641701,51.284584 96.588928,51.049461 
	C98.610199,50.321671 100.286697,49.613827 101.963211,48.905983 
z"/>
<path fill="#16153B" opacity="1.000000" stroke="none" 
	d="
M74.008804,57.009460 
	C74.730202,56.664600 75.425003,56.222698 76.183907,56.014656 
	C76.580147,55.906036 77.089188,56.208916 77.883926,56.411934 
	C75.819801,63.750053 71.898804,69.687881 65.567810,74.758011 
	C63.657528,75.035378 62.373241,75.062531 61.088951,75.089684 
	C61.088951,75.089684 60.900639,74.870430 60.997715,74.446953 
	C61.385380,73.004601 61.675968,71.985733 61.983337,70.983429 
	C62.000118,71.000000 61.965347,70.968613 62.231686,71.276459 
	C65.326958,68.374321 68.155884,65.164337 70.993835,61.977119 
	C71.002853,61.999889 70.956207,61.984955 71.266205,62.001877 
	C71.723206,61.662830 71.870209,61.306862 72.016266,60.983284 
	C72.015320,61.015682 71.950546,61.018204 72.243668,61.002754 
	C72.694290,60.656349 72.851807,60.325397 73.263695,59.783417 
	C73.681648,58.718075 73.845230,57.863770 74.008804,57.009460 
z"/>
<path fill="#0E0E24" opacity="1.000000" stroke="none" 
	d="
M73.649200,56.957634 
	C73.845230,57.863770 73.681648,58.718075 72.964401,59.823338 
	C72.257347,60.388927 72.103951,60.703568 71.950546,61.018204 
	C71.950546,61.018204 72.015320,61.015682 71.654984,60.933418 
	C71.181839,61.229084 71.069023,61.607018 70.956207,61.984955 
	C70.956207,61.984955 71.002853,61.999889 70.686623,61.732811 
	C67.568710,64.633354 64.767029,67.800987 61.965347,70.968613 
	C61.965347,70.968613 62.000118,71.000000 61.665894,71.065987 
	C60.578049,72.410683 59.824429,73.689392 59.070808,74.968109 
	C58.228275,74.898445 57.385738,74.828781 56.468830,74.272476 
	C54.875835,71.312927 53.357212,68.840004 51.838585,66.367081 
	C51.883499,66.099365 51.928410,65.831650 52.358902,65.183945 
	C53.174473,64.804123 53.604462,64.804276 54.126709,65.098221 
	C54.804955,65.941612 55.390934,66.491219 55.976917,67.040817 
	C56.850304,67.993050 57.723694,68.945274 58.085060,69.339264 
	C63.286545,65.085770 68.288071,60.995792 73.649200,56.957634 
z"/>
<path fill="#B9232C" opacity="1.000000" stroke="none" 
	d="
M94.988106,28.800198 
	C96.455414,29.532843 98.021873,30.118074 99.371475,31.025734 
	C103.437363,33.760212 105.388542,37.278027 102.661667,42.571846 
	C101.265625,42.974022 100.215050,42.965755 99.194672,42.608978 
	C98.248589,39.567379 97.272316,36.874290 96.099014,33.878834 
	C94.617622,33.024517 93.333267,32.472565 91.935120,31.607439 
	C90.419930,27.343206 94.283279,30.076935 94.988106,28.800198 
z"/>
<path fill="#C2C3C3" opacity="1.000000" stroke="none" 
	d="
M55.979931,66.645912 
	C55.390934,66.491219 54.804955,65.941612 54.140137,64.754883 
	C54.696148,62.400776 55.330986,60.683800 56.036896,58.625736 
	C57.154137,56.202793 58.200302,54.120937 59.246468,52.039085 
	C59.522865,51.603809 59.799263,51.168533 60.137035,50.478531 
	C63.680248,45.753204 67.162086,41.282612 70.643929,36.812016 
	C71.028793,37.096760 71.413658,37.381504 71.798523,37.666252 
	C68.497559,42.660896 64.909615,47.494328 61.984982,52.700390 
	C59.576286,56.988049 57.953838,61.717400 55.979931,66.645912 
z"/>
<path fill="#B01E24" opacity="1.000000" stroke="none" 
	d="
M99.164474,42.957489 
	C100.215050,42.965755 101.265625,42.974022 102.710220,42.974495 
	C102.807953,44.405766 102.511665,45.844826 102.173950,47.626427 
	C102.132515,47.968971 102.002014,48.429329 101.982605,48.667656 
	C100.286697,49.613827 98.610199,50.321671 96.223907,50.993248 
	C94.951141,50.548752 94.388161,50.140518 94.035095,49.471169 
	C95.778877,47.469349 97.312752,45.728642 98.937302,43.733780 
	C99.073471,43.305573 99.118973,43.131527 99.164474,42.957489 
z"/>
<path fill="#0B0815" opacity="1.000000" stroke="none" 
	d="
M94.792442,28.454556 
	C94.283279,30.076935 90.419930,27.343206 91.919174,31.917885 
	C92.023796,32.956081 92.030579,33.370655 91.970093,33.883156 
	C91.902817,33.981079 92.080917,34.138367 91.706375,34.071175 
	C90.575500,34.038719 89.819168,34.073456 89.026306,33.768620 
	C88.965576,33.202652 88.941360,32.976257 89.093689,32.465645 
	C88.660492,31.541203 87.563560,30.304520 87.511520,30.347031 
	C85.700172,31.826601 83.987312,33.426735 82.058159,35.299957 
	C81.296860,37.047909 80.737846,38.505630 80.178833,39.963348 
	C80.021515,39.363964 79.864197,38.764576 79.403427,38.080849 
	C81.177246,30.771563 86.098015,27.631910 94.792442,28.454556 
z"/>
<path fill="#11112E" opacity="1.000000" stroke="none" 
	d="
M61.061745,75.407471 
	C62.373241,75.062531 63.657528,75.035378 65.329041,75.006844 
	C65.902069,75.325409 66.087883,75.645370 66.547241,76.070831 
	C68.275322,77.597488 69.729858,79.018654 71.322571,80.685883 
	C71.224960,81.432053 70.989159,81.932144 70.221016,82.453232 
	C68.172165,81.226273 66.785973,79.732422 65.085655,78.831261 
	C64.198891,78.361282 62.758846,78.935219 61.568710,79.037643 
	C61.466145,78.700890 61.363579,78.364128 61.132687,77.515213 
	C61.014423,76.577126 61.024483,76.151192 61.061745,75.407471 
z"/>
<path fill="#C2C3C3" opacity="1.000000" stroke="none" 
	d="
M79.063065,30.053391 
	C78.609100,30.276527 78.155128,30.499662 77.701164,30.722797 
	C77.920021,30.447357 78.138878,30.171921 78.668594,29.935738 
	C78.979446,29.974993 79.063065,30.053391 79.063065,30.053391 
z"/>
<path fill="#C2C3C3" opacity="1.000000" stroke="none" 
	d="
M74.444397,33.634521 
	C74.363823,33.525890 74.660286,33.471546 74.660286,33.471546 
	C74.660286,33.471546 74.524963,33.743149 74.444397,33.634521 
z"/>
<path fill="#C2C3C3" opacity="1.000000" stroke="none" 
	d="
M79.963203,28.968151 
	C80.097275,28.943316 80.231346,28.918482 80.179916,28.944530 
	C79.994415,28.995413 79.963203,28.968151 79.963203,28.968151 
z"/>
<path fill="#C2C3C3" opacity="1.000000" stroke="none" 
	d="
M80.008011,29.010746 
	C79.954483,29.364246 79.781555,29.634768 79.282944,29.945515 
	C79.063065,30.053391 78.979446,29.974993 78.938431,29.930502 
	C79.090897,29.623363 79.284386,29.360714 79.720535,29.033108 
	C79.963203,28.968151 79.994415,28.995413 80.008011,29.010746 
z"/>
<path fill="#1F1F53" opacity="1.000000" stroke="none" 
	d="
M77.981064,99.105011 
	C77.519051,99.457382 77.057037,99.809753 76.314056,100.278503 
	C76.023033,96.910805 76.412979,93.367287 75.906258,89.957008 
	C75.200905,85.209892 78.590248,84.251778 81.571541,82.630882 
	C82.845665,81.938156 83.950806,80.934624 85.525970,80.461304 
	C86.723892,86.454384 85.209206,91.463272 82.020493,96.042564 
	C82.020493,96.042564 81.997490,96.000702 81.709366,95.992844 
	C81.278893,96.338623 81.136551,96.692253 80.994202,97.045883 
	C80.994202,97.045883 80.994247,96.992683 80.703949,96.916084 
	C79.933022,97.238457 79.452393,97.637421 78.971771,98.036392 
	C78.971771,98.036392 78.979362,97.976280 78.751129,98.076248 
	C78.342285,98.485809 78.161674,98.795418 77.981064,99.105011 
z"/>
<path fill="#5482B1" opacity="1.000000" stroke="none" 
	d="
M82.379807,96.046844 
	C85.209206,91.463272 86.723892,86.454384 85.864395,80.401596 
	C86.796669,79.320564 87.783760,78.688232 89.145203,78.014717 
	C88.920258,81.527466 88.770348,85.241264 87.580734,88.585197 
	C86.613556,91.303894 84.399971,93.579185 82.379807,96.046844 
z"/>
<path fill="#9D9EA4" opacity="1.000000" stroke="none" 
	d="
M61.472183,79.307709 
	C62.758846,78.935219 64.198891,78.361282 65.085655,78.831261 
	C66.785973,79.732422 68.172165,81.226273 69.915329,82.734314 
	C65.325691,86.715561 64.143608,81.112175 61.472183,79.307709 
z"/>
<path fill="#16153B" opacity="1.000000" stroke="none" 
	d="
M60.325871,87.848564 
	C60.300167,87.210251 60.598030,86.647881 60.895889,86.085510 
	C61.397552,86.353119 61.899208,86.620735 62.400867,86.888344 
	C61.817055,87.233727 61.233246,87.579109 60.325871,87.848564 
z"/>
<path fill="#11112E" opacity="1.000000" stroke="none" 
	d="
M71.952927,81.827255 
	C72.299431,81.672752 72.777550,81.793228 73.613831,82.008896 
	C73.342842,82.103477 72.713699,82.102852 71.952927,81.827255 
z"/>
<path fill="#E0292A" opacity="1.000000" stroke="none" 
	d="
M113.970299,31.038630 
	C110.108093,27.532326 106.245880,24.026022 102.716324,20.149597 
	C106.604080,18.005890 110.183594,16.278765 113.700195,14.431854 
	C114.831093,13.837908 115.796120,12.928136 116.837036,12.162849 
	C120.412003,11.260839 120.362267,13.841469 120.298477,16.614471 
	C117.965897,21.756216 115.968102,26.397423 113.970299,31.038630 
z"/>
<path fill="#EFA965" opacity="1.000000" stroke="none" 
	d="
M116.391533,12.103060 
	C115.796120,12.928136 114.831093,13.837908 113.700195,14.431854 
	C110.183594,16.278765 106.604080,18.005890 102.702728,19.807171 
	C100.856651,18.281134 99.356804,16.727402 97.856956,15.173669 
	C97.975494,14.629027 98.094032,14.084387 98.212570,13.539745 
	C104.123726,13.040920 110.034874,12.542096 116.391533,12.103060 
z"/>
<path fill="#961D22" opacity="1.000000" stroke="none" 
	d="
M114.165474,31.304384 
	C115.968102,26.397423 117.965897,21.756216 120.285004,16.981686 
	C120.276588,22.350248 119.946869,27.852135 119.567490,34.182621 
	C116.973473,32.881096 115.667061,32.225620 114.165474,31.304384 
z"/>
<path fill="#1F1F51" opacity="1.000000" stroke="none" 
	d="
M40.936813,52.967812 
	C45.005135,51.975227 49.090897,51.003361 53.601498,50.089111 
	C53.422905,51.672321 52.556713,53.149353 52.264149,54.732395 
	C51.295113,59.975716 48.245853,61.662464 43.110283,61.087536 
	C40.156731,60.756882 37.099689,61.350677 34.058662,61.162094 
	C35.977028,59.106529 37.925964,57.417206 40.130100,55.166443 
	C40.581211,54.050079 40.777119,53.495155 40.973026,52.940235 
	C40.973026,52.940235 40.954250,52.988533 40.936813,52.967812 
z"/>
<path fill="#ABACB0" opacity="1.000000" stroke="none" 
	d="
M51.611794,66.434341 
	C53.357212,68.840004 54.875835,71.312927 56.207596,74.090759 
	C55.622555,74.305428 55.224373,74.215195 54.520077,74.024582 
	C52.918701,72.213882 51.623440,70.503555 50.416439,68.474503 
	C50.798130,67.604385 51.091564,67.052994 51.611794,66.434341 
z"/>
<path fill="#E2E2E4" opacity="1.000000" stroke="none" 
	d="
M55.965828,58.966824 
	C55.330986,60.683800 54.696148,62.400776 54.047874,64.461090 
	C53.604462,64.804276 53.174473,64.804123 52.421867,64.781654 
	C52.770924,62.420212 53.442608,60.081078 54.442162,57.551994 
	C55.168629,57.896976 55.567226,58.431900 55.965828,58.966824 
z"/>
<path fill="#F7F7F8" opacity="1.000000" stroke="none" 
	d="
M56.036900,58.625736 
	C55.567226,58.431900 55.168629,57.896976 54.562080,57.201614 
	C55.018581,55.428547 55.683033,53.815914 56.691887,52.107964 
	C57.525993,52.009869 58.015701,52.007103 58.875938,52.021713 
	C58.200302,54.120937 57.154137,56.202793 56.036900,58.625736 
z"/>
<path fill="#5482B1" opacity="1.000000" stroke="none" 
	d="
M79.289375,98.112877 
	C79.452393,97.637421 79.933022,97.238457 80.729828,96.922241 
	C80.566330,97.399788 80.086655,97.794571 79.289375,98.112877 
z"/>
<path fill="#5482B1" opacity="1.000000" stroke="none" 
	d="
M81.268158,96.985687 
	C81.136551,96.692253 81.278893,96.338623 81.732224,95.999725 
	C81.876183,96.318138 81.709145,96.621819 81.268158,96.985687 
z"/>
<path fill="#5482B1" opacity="1.000000" stroke="none" 
	d="
M78.284454,99.046051 
	C78.161674,98.795418 78.342285,98.485809 78.781410,98.076416 
	C78.889244,98.313431 78.738548,98.650253 78.284454,99.046051 
z"/>
<path fill="#6F95BD" opacity="1.000000" stroke="none" 
	d="
M59.339302,74.888123 
	C59.824429,73.689392 60.578049,72.410683 61.649109,71.049416 
	C61.675968,71.985733 61.385380,73.004601 60.904854,74.336227 
	C60.345875,74.702034 59.976837,74.755081 59.339302,74.888123 
z"/>
<path fill="#5D8AB6" opacity="1.000000" stroke="none" 
	d="
M40.704552,52.676208 
	C40.777119,53.495155 40.581211,54.050079 40.174828,54.833523 
	C39.433674,54.824009 38.902992,54.585976 38.372314,54.347939 
	C39.060234,53.702690 39.748154,53.057438 40.704552,52.676208 
z"/>
<path fill="#CA2222" opacity="1.000000" stroke="none" 
	d="
M80.113937,40.358627 
	C80.737846,38.505630 81.296860,37.047909 82.338425,35.333595 
	C83.234627,35.424095 83.648270,35.771187 84.027359,36.499664 
	C82.024887,43.967106 84.911774,48.737717 91.740631,50.323860 
	C90.342926,50.760601 89.157433,50.908607 87.971939,51.056614 
	C82.706261,49.640812 79.969368,46.280342 80.113937,40.358627 
z"/>
<path fill="#851E2B" opacity="1.000000" stroke="none" 
	d="
M88.204361,51.385780 
	C89.157433,50.908607 90.342926,50.760601 92.044403,50.229362 
	C92.981987,49.808186 93.403587,49.770233 93.825188,49.732285 
	C94.388161,50.140518 94.951141,50.548752 95.879135,51.013199 
	C93.641701,51.284584 91.039246,51.499763 88.204361,51.385780 
z"/>
<path fill="#6F95BD" opacity="1.000000" stroke="none" 
	d="
M62.231689,71.276459 
	C64.767029,67.800987 67.568710,64.633354 70.677605,61.710037 
	C68.155884,65.164337 65.326958,68.374321 62.231689,71.276459 
z"/>
<path fill="#6F95BD" opacity="1.000000" stroke="none" 
	d="
M71.266205,62.001877 
	C71.069023,61.607018 71.181839,61.229084 71.655930,60.901020 
	C71.870209,61.306862 71.723206,61.662830 71.266205,62.001877 
z"/>
<path fill="#6F95BD" opacity="1.000000" stroke="none" 
	d="
M72.243668,61.002754 
	C72.103951,60.703568 72.257347,60.388927 72.710037,60.034370 
	C72.851807,60.325397 72.694290,60.656349 72.243668,61.002754 
z"/>
<path fill="#2FB3D7" opacity="1.000000" stroke="none" 
	d="
M99.194672,42.608978 
	C99.118973,43.131527 99.073471,43.305573 98.657578,43.808128 
	C97.264229,44.969906 96.241272,45.803173 95.116249,46.269585 
	C94.036423,41.981277 93.058670,38.059822 92.080917,34.138367 
	C92.080917,34.138367 91.902817,33.981079 92.297058,33.951096 
	C93.892883,34.007809 95.094460,34.094505 96.296036,34.181198 
	C97.272316,36.874290 98.248589,39.567379 99.194672,42.608978 
z"/>
<path fill="#020523" opacity="1.000000" stroke="none" 
	d="
M96.099007,33.878838 
	C95.094460,34.094505 93.892883,34.007809 92.364334,33.853172 
	C92.030579,33.370655 92.023796,32.956081 92.032959,32.231060 
	C93.333267,32.472565 94.617622,33.024517 96.099007,33.878838 
z"/>
<path fill="#020523" opacity="1.000000" stroke="none" 
	d="
M95.218315,46.636440 
	C96.241272,45.803173 97.264229,44.969906 98.566910,44.062286 
	C97.312752,45.728642 95.778877,47.469349 94.035095,49.471169 
	C93.403587,49.770233 92.981987,49.808186 92.256622,49.940628 
	C84.911774,48.737717 82.024887,43.967106 84.317734,36.336708 
	C86.067505,34.778194 87.492325,33.764030 88.917145,32.749863 
	C88.941360,32.976257 88.965576,33.202652 88.915344,34.034409 
	C88.527962,35.104759 88.215027,35.569748 87.547340,36.109169 
	C83.050781,41.512009 85.237114,46.410221 92.544998,47.489670 
	C93.643410,47.212780 94.430862,46.924610 95.218315,46.636440 
z"/>
<path fill="#E4F6F8" opacity="1.000000" stroke="none" 
	d="
M95.116249,46.269585 
	C94.430862,46.924610 93.643410,47.212780 92.505615,47.141167 
	C90.737541,43.199169 89.319817,39.616955 87.902092,36.034737 
	C88.215027,35.569748 88.527962,35.104759 88.951866,34.373981 
	C89.819168,34.073456 90.575500,34.038719 91.706375,34.071175 
	C93.058670,38.059822 94.036423,41.981277 95.116249,46.269585 
z"/>
<path fill="#C82223" opacity="1.000000" stroke="none" 
	d="
M89.093689,32.465649 
	C87.492325,33.764030 86.067505,34.778194 84.352295,35.955318 
	C83.648270,35.771187 83.234627,35.424095 82.540710,35.043365 
	C83.987312,33.426735 85.700172,31.826601 87.511520,30.347031 
	C87.563560,30.304520 88.660492,31.541203 89.093689,32.465649 
z"/>
<path fill="#1F84B0" opacity="1.000000" stroke="none" 
	d="
M87.547340,36.109169 
	C89.319817,39.616955 90.737541,43.199169 92.194656,47.129890 
	C85.237114,46.410221 83.050781,41.512009 87.547340,36.109169 
z"/>
</svg>